G04 DipTrace Beta 2.3.9.1*
%INTopMask.gbr*%
%MOMM*%
%ADD15R,1.1X1.0*%
%ADD42R,1.6X2.0*%
%ADD44R,1.0X0.45*%
%ADD46R,0.45X1.0*%
%ADD48R,0.8X1.3*%
%ADD50R,0.5X1.8*%
%ADD52R,1.8X0.5*%
%ADD54R,1.25X0.85*%
%ADD59R,1.3X2.1*%
%ADD60R,0.9X1.7*%
%ADD62R,2.1X1.3*%
%ADD63R,1.7X0.9*%
%ADD65R,2.6X2.6*%
%ADD67R,1.2X1.3*%
%ADD69R,1.3X1.2*%
%FSLAX53Y53*%
G04*
G71*
G90*
G75*
G01*
%LNTopMask*%
%LPD*%
D69*
X30320Y53498D3*
X28620D3*
D67*
X27145Y40480D3*
Y38780D3*
X26725Y52330D3*
Y54030D3*
X28415Y20795D3*
Y22495D3*
X37940Y39845D3*
Y38145D3*
X33495Y22065D3*
Y23765D3*
D69*
X43020Y25240D3*
X44720D3*
X28415Y29050D3*
X30115D3*
X33495D3*
X31795D3*
X38575Y54450D3*
X36875D3*
X42600Y34765D3*
X40900D3*
X41750Y45560D3*
X43450D3*
D65*
X24605Y13175D3*
X20205D3*
D63*
X44925Y52545D3*
Y51045D3*
Y49545D3*
Y48045D3*
Y46545D3*
Y45045D3*
D62*
X48825Y43095D3*
Y54495D3*
D63*
X15715Y29050D3*
Y30550D3*
Y32050D3*
Y33550D3*
Y35050D3*
Y36550D3*
D62*
X11815Y38500D3*
Y27100D3*
D63*
X44925Y36550D3*
Y35050D3*
Y33550D3*
Y32050D3*
Y30550D3*
Y29050D3*
D62*
X48825Y27100D3*
Y38500D3*
D63*
X15715Y44925D3*
Y46425D3*
Y47925D3*
Y49425D3*
Y50925D3*
Y52425D3*
D62*
X11815Y54375D3*
Y42975D3*
D63*
X44925Y20675D3*
Y19175D3*
Y17675D3*
Y16175D3*
Y14675D3*
Y13175D3*
D62*
X48825Y11225D3*
Y22625D3*
D63*
X15715Y13175D3*
Y14675D3*
Y16175D3*
Y17675D3*
Y19175D3*
Y20675D3*
D62*
X11815Y22625D3*
Y11225D3*
D60*
X39407Y16032D3*
X37907D3*
X36407D3*
X34907D3*
X33407D3*
X31907D3*
D59*
X29957Y12132D3*
X41357D3*
D15*
X43655Y54450D3*
X42255D3*
D54*
X24605Y37305D3*
Y39205D3*
X22305Y38255D3*
X24605Y32860D3*
Y34760D3*
X22305Y33810D3*
X24605Y28415D3*
Y30315D3*
X22305Y29365D3*
X24605Y23970D3*
Y25870D3*
X22305Y24920D3*
X24605Y19525D3*
Y21425D3*
X22305Y20475D3*
X24605Y41750D3*
Y43650D3*
X22305Y42700D3*
X24605Y46195D3*
Y48095D3*
X22305Y47145D3*
X24605Y50640D3*
Y52540D3*
X22305Y51590D3*
D69*
X22065Y40480D3*
X20365D3*
X22065Y36035D3*
X20365D3*
X22065Y31590D3*
X20365D3*
X22065Y27145D3*
X20365D3*
X22065Y22700D3*
X20365D3*
X22065Y44925D3*
X20365D3*
X22065Y49370D3*
X20365D3*
X22065Y53815D3*
X20365D3*
X40480Y30320D3*
X42180D3*
X40480Y28415D3*
X42180D3*
D67*
X37940Y20160D3*
Y18460D3*
X35400Y20160D3*
Y18460D3*
D69*
X42600Y36885D3*
X40900D3*
D67*
X31590Y18255D3*
Y19955D3*
X39210Y32225D3*
Y33925D3*
X33495Y18255D3*
Y19955D3*
D52*
X38575Y41750D3*
Y42250D3*
Y42750D3*
Y43250D3*
Y43750D3*
Y44250D3*
Y44750D3*
Y45250D3*
Y45750D3*
Y46250D3*
Y46750D3*
Y47250D3*
Y47750D3*
Y48250D3*
Y48750D3*
Y49250D3*
D50*
X36625Y51200D3*
X36125D3*
X35625D3*
X35125D3*
X34625D3*
X34125D3*
X33625D3*
X33125D3*
X32625D3*
X32125D3*
X31625D3*
X31125D3*
X30625D3*
X30125D3*
X29625D3*
X29125D3*
D52*
X27175Y49250D3*
Y48750D3*
Y48250D3*
Y47750D3*
Y47250D3*
Y46750D3*
Y46250D3*
Y45750D3*
Y45250D3*
Y44750D3*
Y44250D3*
Y43750D3*
Y43250D3*
Y42750D3*
Y42250D3*
Y41750D3*
D50*
X29125Y39800D3*
X29625D3*
X30125D3*
X30625D3*
X31125D3*
X31625D3*
X32125D3*
X32625D3*
X33125D3*
X33625D3*
X34125D3*
X34625D3*
X35125D3*
X35625D3*
X36125D3*
X36625D3*
D48*
X26510Y15397D3*
X27460D3*
X28410D3*
Y18098D3*
X26510D3*
D46*
X31665Y34880D3*
X31165D3*
X30665D3*
X30165D3*
X29665D3*
X29165D3*
D44*
X28415Y34130D3*
Y33630D3*
Y33130D3*
Y32630D3*
Y32130D3*
Y31630D3*
D46*
X29165Y30880D3*
X29665D3*
X30165D3*
X30665D3*
X31165D3*
X31665D3*
D44*
X32415Y31630D3*
Y32130D3*
Y32630D3*
Y33130D3*
Y33630D3*
Y34130D3*
D42*
X40480Y39210D3*
Y43610D3*
X42880Y39210D3*
Y43610D3*
M02*
