G04 DipTrace Beta 2.3.9.1*
%INBottom.gbr*%
%MOMM*%
%ADD13C,0.3*%
%ADD14C,0.635*%
%ADD24C,0.75*%
%ADD37C,1.0*%
%FSLAX53Y53*%
G04*
G71*
G90*
G75*
G01*
%LNBottom*%
%LPD*%
X18890Y27780D2*
D13*
Y32225D1*
Y36670D1*
Y44925D1*
Y49370D1*
Y53815D1*
Y27780D2*
Y23970D1*
X41115Y31590D2*
X40480Y32225D1*
Y39845D1*
X34765Y45560D1*
X33495D1*
X35400Y46195D2*
X41750Y39845D1*
Y34130D1*
X43655Y32225D1*
X36670Y46830D2*
X43020Y40480D1*
Y34130D1*
X43655Y33495D1*
X44290Y38575D2*
Y41750D1*
X40480Y45560D1*
X29685Y43655D2*
X28415Y42385D1*
Y22700D1*
X25875Y20160D1*
X30955Y44925D2*
X29050D1*
X27780Y43655D1*
Y26510D1*
X25875Y24605D1*
X30955Y46195D2*
X28415D1*
X27145Y44925D1*
Y30320D1*
X25875Y29050D1*
X30955Y47465D2*
X30320Y46830D1*
X27145D1*
X26510Y46195D1*
Y33495D1*
X25875Y32860D1*
X29685Y48100D2*
X26510D1*
X25240Y46830D1*
Y37940D1*
X34125Y53815D2*
X41750D1*
X42385Y53180D1*
Y51275D1*
X43655Y50005D1*
X32225Y53180D2*
Y53498D1*
X33495Y54767D1*
X35083D1*
X35400Y54450D1*
X42385D1*
X43655Y53180D1*
Y51275D1*
X15715Y37940D2*
X16350D1*
X24605Y36035D2*
X25240D1*
X23970Y44925D2*
Y36670D1*
X24605Y36035D1*
X25875Y30955D2*
X24605D1*
Y36035D1*
X36670Y17620D2*
Y18255D1*
X46195Y13175D2*
Y12540D1*
X13810Y51910D2*
Y39845D1*
X15715Y37940D1*
Y22065D2*
Y23335D1*
X14445Y24605D1*
Y36670D1*
X15715Y37940D1*
Y22065D2*
Y13810D1*
X16985Y12540D1*
X24605D1*
X31590D1*
X36670Y17620D1*
X46195Y13175D2*
X41115D1*
X36670Y17620D1*
X41750Y32860D2*
X42385Y32225D1*
Y29685D1*
X43020Y29050D1*
X43655D1*
X24605Y30955D2*
Y12540D1*
Y47465D2*
X23970Y46830D1*
Y44925D1*
X37305Y31590D2*
X35083D1*
X34765Y31272D1*
X46195Y43655D2*
X43020Y46830D1*
X38575D1*
X37305Y48100D1*
X36035D1*
X34765Y46830D1*
X32860D1*
X32225Y46195D1*
X46195Y37305D2*
Y43655D1*
X33495Y44290D2*
X32225Y43020D1*
Y27145D1*
X34765Y24605D1*
X36670Y42385D2*
Y39845D1*
X39210Y37305D1*
X48100Y17620D2*
X43020Y22700D1*
X33495Y47782D2*
X31907Y49370D1*
X23970D1*
X22700Y48100D1*
Y19525D1*
X17620Y14445D1*
X34130Y49053D2*
X34447D1*
X33495Y50005D1*
X23335D1*
X22065Y48735D1*
Y20795D1*
X17620Y16350D1*
X38575Y50005D2*
X37305D1*
X36670Y50640D1*
X22700D1*
X20795Y48735D1*
Y20795D1*
X17620Y17620D1*
Y19525D2*
X18255D1*
X20160Y21430D1*
Y49370D1*
X22065Y51275D1*
X37305D1*
X33495Y41750D2*
X32860Y41115D1*
Y32362D1*
Y27780D1*
X44925Y15715D1*
X48100D1*
X49370Y16985D1*
Y20160D1*
X48735Y20795D1*
X39210Y30320D2*
X48735Y20795D1*
X34130Y32860D2*
X33358D1*
X32860Y32362D1*
X34130Y34130D2*
X38258D1*
Y28415D1*
Y23652D1*
X43020Y18890D1*
X38258Y35718D2*
Y34130D1*
X39210Y28415D2*
X38258D1*
X29685Y36035D2*
Y24605D1*
X32225Y22065D1*
X37305D1*
X30955Y43020D2*
Y39210D1*
X31590Y38575D1*
Y25875D1*
X34130Y23335D1*
X36035D1*
X30320Y37940D2*
X30955Y37305D1*
Y25240D1*
X41750Y22065D2*
X46830Y16985D1*
X41115Y52863D2*
X40480Y52227D1*
Y48100D1*
D37*
X18890Y27780D3*
Y32225D3*
Y36670D3*
Y44925D3*
Y49370D3*
Y53815D3*
Y23970D3*
Y27780D3*
Y23970D3*
X41115Y31590D3*
X33495Y45560D3*
X35400Y46195D3*
X43655Y32225D3*
X36670Y46830D3*
X43655Y33495D3*
X44290Y38575D3*
X40480Y45560D3*
X29685Y43655D3*
X25875Y20160D3*
X30955Y44925D3*
X25875Y24605D3*
X30955Y46195D3*
X25875Y29050D3*
X30955Y47465D3*
X25875Y32860D3*
X29685Y48100D3*
X25240Y37940D3*
X34125Y53815D3*
X43655Y50005D3*
X32225Y53180D3*
X43655Y51275D3*
X15715Y37940D3*
X24605Y36035D3*
X23970Y44925D3*
X24605Y36035D3*
X25875Y30955D3*
X24605Y36035D3*
X36670Y17620D3*
X46195Y13175D3*
X13810Y51910D3*
X15715Y37940D3*
Y22065D3*
Y37940D3*
Y22065D3*
X36670Y17620D3*
X46195Y13175D3*
X36670Y17620D3*
X41750Y32860D3*
X43655Y29050D3*
X24605Y47465D3*
X23970Y44925D3*
X37305Y31590D3*
X34765Y31272D3*
X46195Y43655D3*
X32225Y46195D3*
X46195Y37305D3*
Y43655D3*
X33495Y44290D3*
X34765Y24605D3*
X36670Y42385D3*
X39210Y37305D3*
X48100Y17620D3*
X43020Y22700D3*
X33495Y47782D3*
X17620Y14445D3*
X34130Y49053D3*
X17620Y16350D3*
X38575Y50005D3*
X17620Y17620D3*
Y19525D3*
X37305Y51275D3*
X33495Y41750D3*
X48735Y20795D3*
X39210Y30320D3*
X34130Y32860D3*
Y34130D3*
X43020Y18890D3*
X38258Y35718D3*
X39210Y28415D3*
X29685Y36035D3*
X37305Y22065D3*
X30955Y43020D3*
X36035Y23335D3*
X30320Y37940D3*
X30955Y25240D3*
X41750Y22065D3*
X46830Y16985D3*
X41115Y52863D3*
X40480Y48100D3*
X11016Y54136D2*
D14*
X17730D1*
X20050D2*
X31531D1*
X43882D2*
X49624D1*
X11016Y53504D2*
X17730D1*
X20050D2*
X31065D1*
X44438D2*
X49624D1*
X11016Y52873D2*
X18038D1*
X19742D2*
X31065D1*
X34833D2*
X39906D1*
X44507D2*
X49624D1*
X11016Y52241D2*
X18038D1*
X19742D2*
X31512D1*
X32938D2*
X36631D1*
X37979D2*
X39628D1*
X44507D2*
X49624D1*
X11016Y51609D2*
X18038D1*
X19742D2*
X21213D1*
X38465D2*
X39628D1*
X41332D2*
X41529D1*
X44815D2*
X49624D1*
X11016Y50977D2*
X18038D1*
X19742D2*
X20588D1*
X39239D2*
X39628D1*
X41332D2*
X41589D1*
X44825D2*
X49624D1*
X11016Y50346D2*
X18038D1*
X19742D2*
X19954D1*
X41332D2*
X42128D1*
X44805D2*
X49624D1*
X11016Y49714D2*
X17740D1*
X35121D2*
X36413D1*
X41332D2*
X42485D1*
X44825D2*
X49624D1*
X11016Y49083D2*
X17720D1*
X35339D2*
X37842D1*
X39308D2*
X39622D1*
X41332D2*
X42922D1*
X44388D2*
X49624D1*
X11016Y48451D2*
X18038D1*
X24237D2*
X25678D1*
X38137D2*
X39330D1*
X41630D2*
X49624D1*
X11016Y47819D2*
X18038D1*
X23602D2*
X25043D1*
X38772D2*
X39310D1*
X41650D2*
X49624D1*
X11016Y47188D2*
X18038D1*
X23552D2*
X24467D1*
X43843D2*
X49624D1*
X11016Y46556D2*
X18038D1*
X23552D2*
X24388D1*
X44478D2*
X49624D1*
X11016Y45924D2*
X18038D1*
X23552D2*
X24388D1*
X41630D2*
X42743D1*
X45113D2*
X49624D1*
X11016Y45292D2*
X17740D1*
X23552D2*
X24388D1*
X41928D2*
X43368D1*
X45738D2*
X49624D1*
X11016Y44661D2*
X17710D1*
X23552D2*
X24388D1*
X32135D2*
X32354D1*
X42563D2*
X44003D1*
X46799D2*
X49624D1*
X11016Y44029D2*
X18038D1*
X23552D2*
X24388D1*
X31728D2*
X32048D1*
X34675D2*
X35113D1*
X43198D2*
X44638D1*
X47335D2*
X49624D1*
X11016Y43398D2*
X18038D1*
X23552D2*
X24388D1*
X34268D2*
X35738D1*
X43823D2*
X45015D1*
X47375D2*
X49624D1*
X11016Y42766D2*
X18038D1*
X23552D2*
X24388D1*
X34079D2*
X35530D1*
X44458D2*
X45343D1*
X47047D2*
X49624D1*
X11016Y42134D2*
X18038D1*
X23552D2*
X24388D1*
X29347D2*
X30103D1*
X34635D2*
X35490D1*
X45043D2*
X45342D1*
X47047D2*
X49624D1*
X11016Y41502D2*
X18038D1*
X23552D2*
X24388D1*
X29267D2*
X30103D1*
X34675D2*
X35818D1*
X45142D2*
X45339D1*
X47047D2*
X49624D1*
X11016Y40871D2*
X18038D1*
X23552D2*
X24388D1*
X29267D2*
X30103D1*
X34288D2*
X35818D1*
X37522D2*
X38268D1*
X45142D2*
X45339D1*
X47047D2*
X49624D1*
X11016Y40239D2*
X18038D1*
X23552D2*
X24388D1*
X29267D2*
X30103D1*
X33712D2*
X35818D1*
X37522D2*
X38903D1*
X45142D2*
X45339D1*
X47047D2*
X49624D1*
X11016Y39607D2*
X18038D1*
X23552D2*
X24388D1*
X29267D2*
X30103D1*
X33712D2*
X35847D1*
X38088D2*
X39529D1*
X45142D2*
X45339D1*
X47047D2*
X49624D1*
X11016Y38976D2*
X18038D1*
X23552D2*
X24388D1*
X29267D2*
X29775D1*
X33712D2*
X36353D1*
X38723D2*
X39628D1*
X47047D2*
X49624D1*
X11016Y38344D2*
X18038D1*
X23552D2*
X24110D1*
X33712D2*
X36989D1*
X47047D2*
X49624D1*
X11016Y37712D2*
X18038D1*
X23552D2*
X24060D1*
X33712D2*
X37614D1*
X47325D2*
X49624D1*
X11016Y37081D2*
X17760D1*
X23552D2*
X24427D1*
X33712D2*
X38030D1*
X43872D2*
X45015D1*
X47375D2*
X49624D1*
X11016Y36449D2*
X17710D1*
X23552D2*
X25658D1*
X33712D2*
X37316D1*
X43872D2*
X45372D1*
X47018D2*
X49624D1*
X11016Y35817D2*
X18038D1*
X23552D2*
X25658D1*
X33712D2*
X37058D1*
X43872D2*
X49624D1*
X11016Y35186D2*
X18038D1*
X23552D2*
X25658D1*
X34635D2*
X37187D1*
X39328D2*
X39627D1*
X43872D2*
X49624D1*
X11016Y34554D2*
X18038D1*
X23552D2*
X25658D1*
X39110D2*
X39628D1*
X44150D2*
X49624D1*
X11016Y33922D2*
X18038D1*
X23552D2*
X25390D1*
X39110D2*
X39628D1*
X44775D2*
X49624D1*
X11016Y33291D2*
X18038D1*
X23552D2*
X24755D1*
X35250D2*
X37405D1*
X39110D2*
X39628D1*
X44845D2*
X49624D1*
X11016Y32659D2*
X17770D1*
X23552D2*
X24685D1*
X35320D2*
X37405D1*
X39110D2*
X39628D1*
X41580D2*
X42039D1*
X44775D2*
X49624D1*
X11016Y32027D2*
X17700D1*
X23552D2*
X25033D1*
X34972D2*
X37405D1*
X39110D2*
X39648D1*
X42235D2*
X42465D1*
X44845D2*
X49624D1*
X11016Y31396D2*
X18038D1*
X23552D2*
X26293D1*
X33712D2*
X37405D1*
X39655D2*
X39930D1*
X42305D2*
X42803D1*
X44507D2*
X49624D1*
X11016Y30764D2*
X18038D1*
X23552D2*
X26293D1*
X33712D2*
X37405D1*
X41967D2*
X49624D1*
X11016Y30132D2*
X18038D1*
X23552D2*
X25449D1*
X33712D2*
X37405D1*
X40578D2*
X49624D1*
X11016Y29501D2*
X18038D1*
X23552D2*
X24765D1*
X33712D2*
X37405D1*
X41213D2*
X49624D1*
X11016Y28869D2*
X18038D1*
X23552D2*
X24685D1*
X33712D2*
X37405D1*
X41848D2*
X49624D1*
X11016Y28238D2*
X17780D1*
X23552D2*
X25013D1*
X33712D2*
X37405D1*
X42473D2*
X49624D1*
X11016Y27606D2*
X17700D1*
X23552D2*
X26928D1*
X34218D2*
X37405D1*
X40082D2*
X40739D1*
X43108D2*
X49624D1*
X11016Y26974D2*
X18018D1*
X23552D2*
X26928D1*
X34853D2*
X37405D1*
X39110D2*
X41374D1*
X43743D2*
X49624D1*
X11016Y26343D2*
X18038D1*
X23552D2*
X26432D1*
X35478D2*
X37405D1*
X39110D2*
X41999D1*
X44368D2*
X49624D1*
X11016Y25711D2*
X18038D1*
X23552D2*
X25529D1*
X36113D2*
X37405D1*
X39110D2*
X42634D1*
X45003D2*
X49624D1*
X11016Y25079D2*
X18038D1*
X23552D2*
X24775D1*
X36748D2*
X37405D1*
X39110D2*
X43269D1*
X45638D2*
X49624D1*
X11016Y24448D2*
X17790D1*
X23552D2*
X24675D1*
X27075D2*
X27563D1*
X39110D2*
X43894D1*
X46263D2*
X49624D1*
X11016Y23816D2*
X17690D1*
X23552D2*
X24983D1*
X26767D2*
X27563D1*
X31658D2*
X32464D1*
X39278D2*
X42713D1*
X43322D2*
X44529D1*
X46898D2*
X49624D1*
X11016Y23184D2*
X17998D1*
X23552D2*
X27563D1*
X29267D2*
X29924D1*
X32293D2*
X33099D1*
X39913D2*
X41453D1*
X44120D2*
X45164D1*
X47533D2*
X49624D1*
X11016Y22552D2*
X19308D1*
X23552D2*
X27086D1*
X29257D2*
X30549D1*
X44349D2*
X45789D1*
X48159D2*
X49624D1*
X11016Y21921D2*
X19308D1*
X23552D2*
X26451D1*
X28821D2*
X31184D1*
X44984D2*
X46424D1*
X48992D2*
X49624D1*
X11016Y21289D2*
X18831D1*
X23552D2*
X25638D1*
X28186D2*
X31998D1*
X45619D2*
X47059D1*
X11016Y20657D2*
X17403D1*
X17832D2*
X18206D1*
X23552D2*
X24785D1*
X27561D2*
X38794D1*
X46244D2*
X47535D1*
X11016Y20026D2*
X16530D1*
X23552D2*
X24675D1*
X27075D2*
X39429D1*
X46879D2*
X47823D1*
X11016Y19394D2*
X16420D1*
X23542D2*
X24963D1*
X26787D2*
X40064D1*
X47514D2*
X48518D1*
X11016Y18762D2*
X16708D1*
X23126D2*
X40689D1*
X48178D2*
X48507D1*
X11016Y18131D2*
X16530D1*
X22491D2*
X41324D1*
X43942D2*
X44499D1*
X11016Y17499D2*
X16420D1*
X21856D2*
X41959D1*
X44329D2*
X45134D1*
X11016Y16867D2*
X16539D1*
X21231D2*
X42584D1*
X44954D2*
X45630D1*
X11016Y16236D2*
X16420D1*
X20596D2*
X43219D1*
X11016Y15604D2*
X16688D1*
X19961D2*
X43854D1*
X49171D2*
X49624D1*
X11016Y14972D2*
X16539D1*
X19336D2*
X44589D1*
X48436D2*
X49624D1*
X11016Y14341D2*
X16420D1*
X18820D2*
X49624D1*
X11016Y13709D2*
X16678D1*
X18562D2*
X49624D1*
X11016Y13077D2*
X49624D1*
X12827Y12446D2*
X49624D1*
X12986Y11814D2*
X49624D1*
X12688Y11182D2*
X49624D1*
X12874Y11593D2*
X12731Y11310D1*
X12509Y11086D1*
X12255Y10953D1*
X49688Y10952D1*
Y16181D1*
X48661Y15154D1*
X48398Y14980D1*
X48100Y14922D1*
X44925D1*
X44616Y14985D1*
X44364Y15154D1*
X38183Y21335D1*
X38073Y21219D1*
X37812Y21041D1*
X37512Y20941D1*
X37195Y20927D1*
X36888Y21001D1*
X36612Y21156D1*
X36494Y21276D1*
X32225Y21272D1*
X31916Y21335D1*
X31664Y21504D1*
X29202Y23967D1*
X29208Y22700D1*
X29145Y22391D1*
X28976Y22139D1*
X27018Y20160D1*
X26974Y19847D1*
X26846Y19557D1*
X26643Y19314D1*
X26382Y19136D1*
X26082Y19036D1*
X25765Y19022D1*
X25458Y19096D1*
X25182Y19251D1*
X24959Y19476D1*
X24807Y19754D1*
X24736Y20062D1*
X24753Y20378D1*
X24856Y20677D1*
X25037Y20937D1*
X25282Y21137D1*
X25573Y21262D1*
X25897Y21301D1*
X27623Y23029D1*
X27622Y25230D1*
X27018Y24605D1*
X26974Y24292D1*
X26846Y24002D1*
X26643Y23759D1*
X26382Y23581D1*
X26082Y23481D1*
X25765Y23467D1*
X25458Y23541D1*
X25182Y23696D1*
X24959Y23921D1*
X24807Y24199D1*
X24736Y24507D1*
X24753Y24823D1*
X24856Y25122D1*
X25037Y25382D1*
X25282Y25582D1*
X25573Y25707D1*
X25897Y25746D1*
X26991Y26842D1*
X26987Y28782D1*
X26846Y28447D1*
X26643Y28204D1*
X26382Y28026D1*
X26082Y27926D1*
X25765Y27912D1*
X25458Y27986D1*
X25182Y28141D1*
X24959Y28366D1*
X24807Y28644D1*
X24736Y28952D1*
X24753Y29268D1*
X24856Y29567D1*
X25037Y29827D1*
X25282Y30027D1*
X25573Y30152D1*
X25897Y30191D1*
X26346Y30642D1*
X26352Y31818D1*
X26082Y31736D1*
X25765Y31722D1*
X25458Y31796D1*
X25182Y31951D1*
X24959Y32176D1*
X24807Y32454D1*
X24736Y32762D1*
X24753Y33078D1*
X24856Y33377D1*
X25037Y33637D1*
X25282Y33837D1*
X25573Y33962D1*
X25720Y33981D1*
X25717Y36898D1*
X25447Y36816D1*
X25130Y36802D1*
X24823Y36876D1*
X24547Y37031D1*
X24324Y37256D1*
X24172Y37534D1*
X24101Y37842D1*
X24118Y38158D1*
X24221Y38457D1*
X24440Y38748D1*
X24447Y41750D1*
Y46830D1*
X24510Y47139D1*
X24679Y47391D1*
X25862Y48573D1*
X24297Y48577D1*
X23499Y47778D1*
X23493Y42385D1*
Y19525D1*
X23430Y19216D1*
X23261Y18964D1*
X18763Y14445D1*
X18719Y14132D1*
X18591Y13842D1*
X18388Y13599D1*
X18127Y13421D1*
X17827Y13321D1*
X17510Y13307D1*
X17203Y13381D1*
X16927Y13536D1*
X16704Y13761D1*
X16552Y14039D1*
X16481Y14347D1*
X16498Y14663D1*
X16601Y14962D1*
X16782Y15222D1*
X16989Y15391D1*
X16704Y15666D1*
X16552Y15944D1*
X16481Y16252D1*
X16498Y16568D1*
X16601Y16867D1*
X16674Y16973D1*
X16552Y17214D1*
X16481Y17522D1*
X16498Y17838D1*
X16601Y18137D1*
X16782Y18397D1*
X16989Y18566D1*
X16704Y18841D1*
X16552Y19119D1*
X16481Y19427D1*
X16498Y19743D1*
X16601Y20042D1*
X16782Y20302D1*
X17027Y20502D1*
X17318Y20627D1*
X17632Y20668D1*
X17945Y20621D1*
X18134Y20535D1*
X19371Y21762D1*
X19367Y22928D1*
X19097Y22846D1*
X18780Y22832D1*
X18473Y22906D1*
X18197Y23061D1*
X17974Y23286D1*
X17822Y23564D1*
X17751Y23872D1*
X17768Y24188D1*
X17871Y24487D1*
X18090Y24778D1*
X18097Y26956D1*
X17974Y27096D1*
X17822Y27374D1*
X17751Y27682D1*
X17768Y27998D1*
X17871Y28297D1*
X18090Y28588D1*
X18097Y31401D1*
X17974Y31541D1*
X17822Y31819D1*
X17751Y32127D1*
X17768Y32443D1*
X17871Y32742D1*
X18090Y33033D1*
X18097Y35846D1*
X17974Y35986D1*
X17822Y36264D1*
X17751Y36572D1*
X17768Y36888D1*
X17871Y37187D1*
X18090Y37478D1*
X18097Y40480D1*
Y44101D1*
X17974Y44241D1*
X17822Y44519D1*
X17751Y44827D1*
X17768Y45143D1*
X17871Y45442D1*
X18090Y45733D1*
X18097Y48547D1*
X17974Y48686D1*
X17822Y48964D1*
X17751Y49272D1*
X17768Y49588D1*
X17871Y49887D1*
X18090Y50178D1*
X18097Y52992D1*
X17974Y53131D1*
X17822Y53409D1*
X17751Y53717D1*
X17768Y54033D1*
X17871Y54332D1*
X18052Y54592D1*
X18255Y54767D1*
X10953D1*
Y12272D1*
X11066Y12481D1*
X11283Y12711D1*
X11560Y12863D1*
X11871Y12922D1*
X12185Y12884D1*
X12472Y12751D1*
X12704Y12536D1*
X12859Y12260D1*
X12923Y11905D1*
X12874Y11593D1*
X19676Y50187D2*
X19771Y50089D1*
X20497Y50829D1*
X21504Y51836D1*
X21767Y52010D1*
X22065Y52068D1*
X31957D1*
X31808Y52116D1*
X31532Y52271D1*
X31309Y52496D1*
X31157Y52774D1*
X31086Y53082D1*
X31103Y53398D1*
X31206Y53697D1*
X31387Y53957D1*
X31632Y54157D1*
X31889Y54283D1*
X32373Y54767D1*
X19515D1*
X19744Y54575D1*
X19919Y54311D1*
X20016Y54010D1*
X20033Y53815D1*
X19989Y53502D1*
X19861Y53212D1*
X19677Y52992D1*
X19683Y50194D1*
X19369Y22936D2*
X19097Y22846D1*
X18780Y22832D1*
X18473Y22906D1*
X18197Y23061D1*
X17974Y23286D1*
X17822Y23564D1*
X17751Y23872D1*
X17768Y24188D1*
X17871Y24487D1*
X18090Y24778D1*
X39687Y32542D2*
Y36263D1*
X39417Y36181D1*
X39308Y36176D1*
X39384Y35913D1*
X39400Y35718D1*
X39357Y35404D1*
X39228Y35115D1*
X39045Y34894D1*
X39050Y32542D1*
Y31461D1*
X39222Y31463D1*
X39535Y31416D1*
X39823Y31285D1*
X40064Y31080D1*
X40239Y30816D1*
X40336Y30515D1*
X40352Y30310D1*
X42016Y28636D1*
X48716Y21936D1*
X49060Y21891D1*
X49348Y21760D1*
X49589Y21555D1*
X49688Y21430D1*
Y54767D1*
X43189D1*
X44216Y53741D1*
X44390Y53478D1*
X44448Y53180D1*
Y52099D1*
X44684Y51771D1*
X44781Y51470D1*
X44798Y51275D1*
X44754Y50962D1*
X44607Y50649D1*
X44684Y50501D1*
X44781Y50200D1*
X44798Y50005D1*
X44754Y49692D1*
X44626Y49402D1*
X44423Y49159D1*
X44162Y48981D1*
X43862Y48881D1*
X43545Y48867D1*
X43238Y48941D1*
X42962Y49096D1*
X42739Y49321D1*
X42587Y49599D1*
X42516Y49907D1*
X42522Y50016D1*
X41824Y50714D1*
X41650Y50977D1*
X41592Y51275D1*
Y51821D1*
X41272Y51736D1*
X41273Y48923D1*
X41509Y48596D1*
X41606Y48295D1*
X41623Y48100D1*
X41579Y47787D1*
X41503Y47615D1*
X43020Y47623D1*
X43329Y47560D1*
X43581Y47391D1*
X46169Y44802D1*
X46520Y44751D1*
X46808Y44620D1*
X47049Y44415D1*
X47224Y44151D1*
X47321Y43850D1*
X47338Y43655D1*
X47294Y43342D1*
X47166Y43052D1*
X46982Y42832D1*
X46988Y38128D1*
X47224Y37801D1*
X47321Y37500D1*
X47338Y37305D1*
X47294Y36992D1*
X47166Y36702D1*
X46963Y36459D1*
X46702Y36281D1*
X46402Y36181D1*
X46085Y36167D1*
X45778Y36241D1*
X45502Y36396D1*
X45279Y36621D1*
X45127Y36899D1*
X45056Y37207D1*
X45073Y37523D1*
X45176Y37822D1*
X45395Y38113D1*
X45402Y38307D1*
X45261Y37972D1*
X45058Y37729D1*
X44797Y37551D1*
X44497Y37451D1*
X44180Y37437D1*
X43812Y37545D1*
X43813Y34636D1*
X43980Y34591D1*
X44268Y34460D1*
X44509Y34255D1*
X44684Y33991D1*
X44781Y33690D1*
X44798Y33495D1*
X44754Y33182D1*
X44607Y32869D1*
X44684Y32721D1*
X44781Y32420D1*
X44798Y32225D1*
X44754Y31912D1*
X44626Y31622D1*
X44423Y31379D1*
X44162Y31201D1*
X43862Y31101D1*
X43545Y31087D1*
X43238Y31161D1*
X42962Y31316D1*
X42739Y31541D1*
X42587Y31819D1*
X42516Y32127D1*
X42522Y32236D1*
X41274Y33484D1*
X41273Y32731D1*
X41440Y32686D1*
X41728Y32555D1*
X41969Y32350D1*
X42144Y32086D1*
X42241Y31785D1*
X42258Y31590D1*
X42214Y31277D1*
X42086Y30987D1*
X41883Y30744D1*
X41622Y30566D1*
X41322Y30466D1*
X41005Y30452D1*
X40698Y30526D1*
X40422Y30681D1*
X40199Y30906D1*
X40047Y31184D1*
X39976Y31492D1*
X39982Y31601D1*
X39745Y31927D1*
X39687Y32225D1*
Y32542D1*
Y38347D2*
Y39518D1*
X37555Y41649D1*
X37463Y41432D1*
Y40172D1*
X39188Y38448D1*
X39535Y38401D1*
X39688Y38331D1*
X35941Y43262D2*
X34594Y44609D1*
X34638Y44290D1*
X34594Y43977D1*
X34466Y43687D1*
X34263Y43444D1*
X34002Y43266D1*
X33702Y43166D1*
X33474Y43156D1*
X33193Y42852D1*
X33507Y42893D1*
X33820Y42846D1*
X34108Y42715D1*
X34349Y42510D1*
X34524Y42246D1*
X34621Y41945D1*
X34638Y41750D1*
X34594Y41437D1*
X34466Y41147D1*
X34263Y40904D1*
X34002Y40726D1*
X33652Y40624D1*
X33653Y35172D1*
X33828Y35232D1*
X34142Y35273D1*
X34455Y35226D1*
X34743Y35095D1*
X34946Y34922D1*
X37434Y34923D1*
X37342Y35034D1*
X37189Y35311D1*
X37119Y35620D1*
X37136Y35936D1*
X37238Y36235D1*
X37419Y36495D1*
X37665Y36695D1*
X37955Y36820D1*
X38161Y36846D1*
X38071Y37207D1*
X38077Y37316D1*
X36109Y39284D1*
X35935Y39547D1*
X35877Y39845D1*
Y41562D1*
X35754Y41701D1*
X35602Y41979D1*
X35531Y42287D1*
X35548Y42603D1*
X35651Y42902D1*
X35832Y43162D1*
X35947Y43256D1*
X40156Y44465D2*
X43496Y41126D1*
X43498Y41421D1*
X40495Y44424D1*
X40370Y44422D1*
X40149Y44475D1*
X45083Y41432D2*
Y39398D1*
X45319Y39071D1*
X45401Y38817D1*
X45402Y42831D1*
X45279Y42971D1*
X45127Y43249D1*
X45056Y43557D1*
X45062Y43666D1*
X42695Y46034D1*
X41522Y46037D1*
X41606Y45755D1*
X41622Y45550D1*
X43286Y43876D1*
X44851Y42311D1*
X45025Y42048D1*
X45083Y41750D1*
Y41432D1*
X29663Y42512D2*
X29214Y42063D1*
X29208Y38208D1*
X29301Y38457D1*
X29482Y38717D1*
X29727Y38917D1*
X30018Y39042D1*
X30185Y39064D1*
X30162Y39527D1*
Y42196D1*
X30039Y42336D1*
X29930Y42536D1*
X29664Y42521D1*
X32054Y44612D2*
X31926Y44322D1*
X31723Y44079D1*
X31585Y43984D1*
X31836Y43739D1*
X32359Y44275D1*
X32373Y44508D1*
X32476Y44807D1*
X32549Y44913D1*
X32432Y45071D1*
X32087Y45064D1*
X32098Y44925D1*
X32054Y44612D1*
X39974Y53022D2*
X34953D1*
X34632Y52791D1*
X34332Y52691D1*
X34015Y52677D1*
X33708Y52751D1*
X33432Y52906D1*
X33355Y52984D1*
X33196Y52577D1*
X32993Y52334D1*
X32732Y52156D1*
X32460Y52065D1*
X36482Y52068D1*
X36712Y52252D1*
X37003Y52377D1*
X37317Y52418D1*
X37630Y52371D1*
X37918Y52240D1*
X38159Y52035D1*
X38334Y51771D1*
X38431Y51470D1*
X38448Y51275D1*
X38430Y51148D1*
X38900Y51101D1*
X39188Y50970D1*
X39429Y50765D1*
X39604Y50501D1*
X39686Y50247D1*
X39687Y52227D1*
X39750Y52537D1*
X39919Y52788D1*
X39968Y52837D1*
X38902Y47623D2*
X39438D1*
X39341Y48002D1*
X39358Y48318D1*
X39461Y48617D1*
X39680Y48908D1*
X39687Y49737D1*
X39546Y49402D1*
X39343Y49159D1*
X39082Y48981D1*
X38782Y48881D1*
X38465Y48867D1*
X38158Y48941D1*
X37882Y49096D1*
X37764Y49216D1*
X37305Y49212D1*
X36996Y49275D1*
X36744Y49444D1*
X36344Y49844D1*
X34953Y49847D1*
X35159Y49549D1*
X35256Y49248D1*
X35273Y49053D1*
X35229Y48739D1*
X35101Y48450D1*
X34898Y48206D1*
X34609Y48019D1*
X34634Y47825D1*
X35474Y48661D1*
X35737Y48835D1*
X36035Y48893D1*
X37305D1*
X37614Y48830D1*
X37866Y48661D1*
X38897Y47629D1*
X46177Y44794D2*
X46520Y44751D1*
X46808Y44620D1*
X47049Y44415D1*
X47224Y44151D1*
X47321Y43850D1*
X47338Y43655D1*
X47294Y43342D1*
X47166Y43052D1*
X46982Y42832D1*
X44163Y22678D2*
X48078Y18764D1*
X48425Y18716D1*
X48578Y18646D1*
X48577Y19654D1*
X48318Y19731D1*
X48042Y19886D1*
X47819Y20111D1*
X47667Y20389D1*
X47596Y20697D1*
X47602Y20806D1*
X40310Y28099D1*
X40181Y27812D1*
X39978Y27569D1*
X39717Y27391D1*
X39417Y27291D1*
X39052Y27289D1*
X39050Y23980D1*
X40649Y22382D1*
X40731Y22582D1*
X40912Y22842D1*
X41157Y23042D1*
X41448Y23167D1*
X41762Y23208D1*
X41987Y23174D1*
X42182Y23477D1*
X42427Y23677D1*
X42718Y23802D1*
X43032Y23843D1*
X43345Y23796D1*
X43633Y23665D1*
X43874Y23460D1*
X44049Y23196D1*
X44146Y22895D1*
X44162Y22690D1*
X33653Y31816D2*
Y28105D1*
X37469Y24293D1*
X37465Y32225D1*
Y33346D1*
X36035Y33337D1*
X35172D1*
X35256Y33055D1*
X35273Y32860D1*
X35229Y32547D1*
X35101Y32257D1*
X34898Y32014D1*
X34637Y31836D1*
X34337Y31736D1*
X34020Y31722D1*
X33652Y31830D1*
X43755Y18006D2*
X45256Y16505D1*
X45788Y16508D1*
X45691Y16887D1*
X45697Y16996D1*
X44115Y18578D1*
X43991Y18287D1*
X43748Y18016D1*
X31263Y24148D2*
X32554Y22857D1*
X33485Y22858D1*
X31836Y24507D1*
X31723Y24394D1*
X31462Y24216D1*
X31265Y24150D1*
D24*
X11905Y11905D3*
M02*
