G04 DipTrace Beta 2.3.9.1*
%INBottomSilk.gbr*%
%MOMM*%
%ADD70C,0.196*%
%ADD71C,0.235*%
%FSLAX53Y53*%
G04*
G71*
G90*
G75*
G01*
%LNBotSilk*%
%LPD*%
X42731Y37001D2*
D71*
X43316Y38532D1*
X43898Y37001D1*
X43679Y37512D2*
X42950D1*
X42260Y37584D2*
X41386D1*
Y37731D1*
X41458Y37877D1*
X41531Y37950D1*
X41677Y38022D1*
X41896D1*
X42041Y37950D1*
X42188Y37803D1*
X42260Y37584D1*
Y37439D1*
X42188Y37220D1*
X42041Y37075D1*
X41896Y37001D1*
X41677D1*
X41531Y37075D1*
X41386Y37220D1*
X40915Y38532D2*
Y37001D1*
X40445Y38532D2*
X40372Y38460D1*
X40298Y38532D1*
X40372Y38607D1*
X40445Y38532D1*
X40372Y38022D2*
Y37001D1*
X39609Y38532D2*
Y37293D1*
X39536Y37075D1*
X39390Y37001D1*
X39245D1*
X39828Y38022D2*
X39317D1*
X38774Y38532D2*
Y37001D1*
Y37731D2*
X38555Y37950D1*
X38409Y38022D1*
X38190D1*
X38045Y37950D1*
X37972Y37731D1*
Y37001D1*
X36020Y38532D2*
Y37001D1*
X35510D1*
X35291Y37075D1*
X35144Y37220D1*
X35072Y37367D1*
X35000Y37584D1*
Y37950D1*
X35072Y38169D1*
X35144Y38313D1*
X35291Y38460D1*
X35510Y38532D1*
X36020D1*
X34529D2*
X34457Y38460D1*
X34382Y38532D1*
X34457Y38607D1*
X34529Y38532D1*
X34457Y38022D2*
Y37001D1*
X33038Y37950D2*
Y36782D1*
X33110Y36565D1*
X33182Y36491D1*
X33329Y36418D1*
X33548D1*
X33693Y36491D1*
X33038Y37731D2*
X33182Y37875D1*
X33329Y37950D1*
X33548D1*
X33693Y37875D1*
X33839Y37731D1*
X33912Y37512D1*
Y37365D1*
X33839Y37148D1*
X33693Y37001D1*
X33548Y36929D1*
X33329D1*
X33182Y37001D1*
X33038Y37148D1*
X32567Y38532D2*
X32494Y38460D1*
X32420Y38532D1*
X32494Y38607D1*
X32567Y38532D1*
X32494Y38022D2*
Y37001D1*
X31731Y38532D2*
Y37293D1*
X31658Y37075D1*
X31512Y37001D1*
X31367D1*
X31950Y38022D2*
X31439D1*
X30022D2*
Y37001D1*
Y37803D2*
X30167Y37950D1*
X30313Y38022D1*
X30531D1*
X30677Y37950D1*
X30822Y37803D1*
X30896Y37584D1*
Y37439D1*
X30822Y37220D1*
X30677Y37075D1*
X30531Y37001D1*
X30313D1*
X30167Y37075D1*
X30022Y37220D1*
X29551Y38532D2*
Y37001D1*
X26506Y38169D2*
X26579Y38313D1*
X26725Y38460D1*
X26870Y38532D1*
X27161D1*
X27308Y38460D1*
X27453Y38313D1*
X27527Y38169D1*
X27599Y37950D1*
Y37584D1*
X27527Y37367D1*
X27453Y37220D1*
X27308Y37075D1*
X27161Y37001D1*
X26870D1*
X26725Y37075D1*
X26579Y37220D1*
X26506Y37367D1*
X25672Y38022D2*
X25817Y37950D1*
X25963Y37803D1*
X26036Y37584D1*
Y37439D1*
X25963Y37220D1*
X25817Y37075D1*
X25672Y37001D1*
X25453D1*
X25306Y37075D1*
X25161Y37220D1*
X25087Y37439D1*
Y37584D1*
X25161Y37803D1*
X25306Y37950D1*
X25453Y38022D1*
X25672D1*
X24617D2*
Y37001D1*
Y37731D2*
X24398Y37950D1*
X24251Y38022D1*
X24034D1*
X23887Y37950D1*
X23815Y37731D1*
Y37001D1*
X23125Y38532D2*
Y37293D1*
X23053Y37075D1*
X22906Y37001D1*
X22761D1*
X23344Y38022D2*
X22834D1*
X22291D2*
Y37001D1*
Y37584D2*
X22216Y37803D1*
X22072Y37950D1*
X21925Y38022D1*
X21706D1*
X20872D2*
X21016Y37950D1*
X21163Y37803D1*
X21235Y37584D1*
Y37439D1*
X21163Y37220D1*
X21016Y37075D1*
X20872Y37001D1*
X20653D1*
X20506Y37075D1*
X20361Y37220D1*
X20287Y37439D1*
Y37584D1*
X20361Y37803D1*
X20506Y37950D1*
X20653Y38022D1*
X20872D1*
X19816Y38532D2*
Y37001D1*
X19346Y38532D2*
Y37001D1*
X18875Y37584D2*
X18001D1*
Y37731D1*
X18073Y37877D1*
X18146Y37950D1*
X18292Y38022D1*
X18511D1*
X18656Y37950D1*
X18803Y37803D1*
X18875Y37584D1*
Y37439D1*
X18803Y37220D1*
X18656Y37075D1*
X18511Y37001D1*
X18292D1*
X18146Y37075D1*
X18001Y37220D1*
X17530Y38022D2*
Y37001D1*
Y37584D2*
X17456Y37803D1*
X17311Y37950D1*
X17165Y38022D1*
X16946D1*
X39116Y34628D2*
X38461D1*
X38242Y34702D1*
X38168Y34775D1*
X38095Y34919D1*
Y35066D1*
X38168Y35211D1*
X38242Y35285D1*
X38461Y35357D1*
X39116D1*
Y33826D1*
X38606Y34628D2*
X38095Y33826D1*
X36750Y34847D2*
Y33826D1*
Y34628D2*
X36895Y34775D1*
X37042Y34847D1*
X37259D1*
X37406Y34775D1*
X37551Y34628D1*
X37625Y34409D1*
Y34264D1*
X37551Y34045D1*
X37406Y33900D1*
X37259Y33826D1*
X37042D1*
X36895Y33900D1*
X36750Y34045D1*
X35988Y35359D2*
X35914Y35287D1*
X35842Y35359D1*
X35914Y35432D1*
X35988Y35359D1*
X35914Y34849D2*
Y33609D1*
X35988Y33390D1*
X36133Y33317D1*
X36280D1*
X35371Y34409D2*
X34497D1*
Y34556D1*
X34569Y34702D1*
X34642Y34775D1*
X34788Y34847D1*
X35007D1*
X35152Y34775D1*
X35299Y34628D1*
X35371Y34409D1*
Y34264D1*
X35299Y34045D1*
X35152Y33900D1*
X35007Y33826D1*
X34788D1*
X34642Y33900D1*
X34497Y34045D1*
X33224Y34628D2*
X33297Y34775D1*
X33516Y34847D1*
X33735D1*
X33954Y34775D1*
X34026Y34628D1*
X33954Y34483D1*
X33807Y34409D1*
X33443Y34337D1*
X33297Y34264D1*
X33224Y34118D1*
Y34045D1*
X33297Y33900D1*
X33516Y33826D1*
X33735D1*
X33954Y33900D1*
X34026Y34045D1*
X32754Y35357D2*
Y33826D1*
Y34556D2*
X32535Y34775D1*
X32388Y34847D1*
X32169D1*
X32024Y34775D1*
X31952Y34556D1*
Y33826D1*
X28979Y35357D2*
Y33826D1*
X30000Y35357D1*
Y33826D1*
X27634Y34847D2*
Y33826D1*
Y34628D2*
X27779Y34775D1*
X27926Y34847D1*
X28143D1*
X28290Y34775D1*
X28434Y34628D1*
X28509Y34409D1*
Y34264D1*
X28434Y34045D1*
X28290Y33900D1*
X28143Y33826D1*
X27926D1*
X27779Y33900D1*
X27634Y34045D1*
X27164Y35357D2*
Y33826D1*
X26434Y34847D2*
X27164Y34118D1*
X26872Y34409D2*
X26362Y33826D1*
X25017Y34847D2*
Y33826D1*
Y34628D2*
X25162Y34775D1*
X25308Y34847D1*
X25526D1*
X25672Y34775D1*
X25817Y34628D1*
X25891Y34409D1*
Y34264D1*
X25817Y34045D1*
X25672Y33900D1*
X25526Y33826D1*
X25308D1*
X25162Y33900D1*
X25017Y34045D1*
X24546Y34847D2*
Y33826D1*
Y34409D2*
X24472Y34628D1*
X24327Y34775D1*
X24181Y34847D1*
X23962D1*
X23200Y35359D2*
X23126Y35287D1*
X23053Y35359D1*
X23126Y35432D1*
X23200Y35359D1*
X23126Y34849D2*
Y33609D1*
X23200Y33390D1*
X23345Y33317D1*
X23491D1*
X21708Y34847D2*
Y33826D1*
Y34628D2*
X21853Y34775D1*
X22000Y34847D1*
X22217D1*
X22364Y34775D1*
X22508Y34628D1*
X22583Y34409D1*
Y34264D1*
X22508Y34045D1*
X22364Y33900D1*
X22217Y33826D1*
X22000D1*
X21853Y33900D1*
X21708Y34045D1*
X36604Y12719D2*
D70*
X36725Y12841D1*
X36908Y12901D1*
X37151D1*
X37333Y12841D1*
X37455Y12719D1*
Y12598D1*
X37393Y12476D1*
X37333Y12415D1*
X37212Y12355D1*
X36847Y12233D1*
X36725Y12173D1*
X36665Y12111D1*
X36604Y11990D1*
Y11808D1*
X36725Y11687D1*
X36908Y11625D1*
X37151D1*
X37333Y11687D1*
X37455Y11808D1*
X36212Y12901D2*
X35908Y11625D1*
X35604Y12901D1*
X35301Y11625D1*
X34997Y12901D1*
X34604D2*
Y11625D1*
X34179D1*
X33997Y11687D1*
X33874Y11808D1*
X33814Y11930D1*
X33754Y12111D1*
Y12415D1*
X33814Y12598D1*
X33874Y12719D1*
X33997Y12841D1*
X34179Y12901D1*
X34604D1*
X48910Y35765D2*
X47634Y36252D1*
X48910Y36738D1*
X48484Y36555D2*
Y35947D1*
X48059Y35373D2*
X48910D1*
X48302D2*
X48119Y35190D1*
X48059Y35068D1*
Y34887D1*
X48119Y34765D1*
X48302Y34704D1*
X48910D1*
X48059Y33584D2*
X48910D1*
X48241D2*
X48119Y33704D1*
X48059Y33826D1*
Y34008D1*
X48119Y34130D1*
X48241Y34250D1*
X48424Y34312D1*
X48545D1*
X48727Y34250D1*
X48848Y34130D1*
X48910Y34008D1*
Y33826D1*
X48848Y33704D1*
X48727Y33584D1*
X47634Y33191D2*
X48910D1*
X48059Y32496D2*
X48119Y32617D1*
X48241Y32739D1*
X48424Y32799D1*
X48545D1*
X48727Y32739D1*
X48848Y32617D1*
X48910Y32496D1*
Y32314D1*
X48848Y32191D1*
X48727Y32071D1*
X48545Y32009D1*
X48424D1*
X48241Y32071D1*
X48119Y32191D1*
X48059Y32314D1*
Y32496D1*
X48119Y30888D2*
X49092D1*
X49273Y30949D1*
X49335Y31009D1*
X49395Y31131D1*
Y31314D1*
X49335Y31434D1*
X48302Y30888D2*
X48181Y31009D1*
X48119Y31131D1*
Y31314D1*
X48181Y31434D1*
X48302Y31556D1*
X48484Y31617D1*
X48606D1*
X48788Y31556D1*
X48910Y31434D1*
X48970Y31314D1*
Y31131D1*
X48910Y31009D1*
X48788Y30888D1*
X48059Y30496D2*
X48667D1*
X48848Y30436D1*
X48910Y30314D1*
Y30131D1*
X48848Y30010D1*
X48667Y29828D1*
X48059D2*
X48910D1*
X48424Y29436D2*
Y28707D1*
X48302D1*
X48180Y28767D1*
X48119Y28828D1*
X48059Y28950D1*
Y29132D1*
X48119Y29253D1*
X48241Y29375D1*
X48424Y29436D1*
X48545D1*
X48727Y29375D1*
X48848Y29253D1*
X48910Y29132D1*
Y28950D1*
X48848Y28828D1*
X48727Y28707D1*
X12169Y15463D2*
Y16009D1*
X12230Y16192D1*
X12291Y16254D1*
X12411Y16314D1*
X12534D1*
X12654Y16254D1*
X12716Y16192D1*
X12776Y16009D1*
Y15463D1*
X11500D1*
X12169Y15889D2*
X11500Y16314D1*
X12473Y17617D2*
X12594Y17557D1*
X12716Y17435D1*
X12776Y17314D1*
Y17071D1*
X12716Y16949D1*
X12594Y16828D1*
X12473Y16767D1*
X12291Y16706D1*
X11986D1*
X11805Y16767D1*
X11683Y16828D1*
X11562Y16949D1*
X11500Y17071D1*
Y17314D1*
X11562Y17435D1*
X11683Y17557D1*
X11805Y17617D1*
X12776Y18009D2*
X11500D1*
X12351Y18402D2*
X11500D1*
X12108D2*
X12291Y18584D1*
X12351Y18706D1*
Y18887D1*
X12291Y19009D1*
X12108Y19070D1*
X11500D1*
X11594Y30629D2*
X12870D1*
X11594Y30143D1*
X12870Y29657D1*
X11594D1*
X12445Y31324D2*
X12384Y31203D1*
X12262Y31081D1*
X12080Y31021D1*
X11959D1*
X11777Y31081D1*
X11656Y31203D1*
X11594Y31324D1*
Y31507D1*
X11656Y31629D1*
X11777Y31749D1*
X11959Y31811D1*
X12080D1*
X12262Y31749D1*
X12384Y31629D1*
X12445Y31507D1*
Y31324D1*
X12870Y32386D2*
X11837D1*
X11656Y32446D1*
X11594Y32568D1*
Y32689D1*
X12445Y32203D2*
Y32629D1*
X12870Y33446D2*
X12810Y33324D1*
X12688Y33203D1*
X12567Y33142D1*
X12384Y33081D1*
X12080D1*
X11899Y33142D1*
X11777Y33203D1*
X11656Y33324D1*
X11594Y33446D1*
Y33689D1*
X11656Y33810D1*
X11777Y33932D1*
X11899Y33992D1*
X12080Y34053D1*
X12384D1*
X12567Y33992D1*
X12688Y33932D1*
X12810Y33810D1*
X12870Y33689D1*
Y33446D1*
X12445Y34445D2*
X11837D1*
X11656Y34505D1*
X11594Y34627D1*
Y34810D1*
X11656Y34931D1*
X11837Y35113D1*
X12445D2*
X11594D1*
X12870Y35688D2*
X11837D1*
X11656Y35748D1*
X11594Y35870D1*
Y35991D1*
X12445Y35505D2*
Y35931D1*
X47724Y19252D2*
X49000D1*
Y18826D1*
X48939Y18644D1*
X48818Y18522D1*
X48696Y18461D1*
X48515Y18401D1*
X48210D1*
X48027Y18461D1*
X47907Y18522D1*
X47785Y18644D1*
X47724Y18826D1*
Y19252D1*
X48150Y17280D2*
X49000D1*
X48332D2*
X48210Y17401D1*
X48150Y17523D1*
Y17704D1*
X48210Y17826D1*
X48332Y17947D1*
X48515Y18009D1*
X48635D1*
X48818Y17947D1*
X48939Y17826D1*
X49000Y17704D1*
Y17523D1*
X48939Y17401D1*
X48818Y17280D1*
X47724Y16705D2*
X48757D1*
X48939Y16645D1*
X49000Y16523D1*
Y16402D1*
X48150Y16888D2*
Y16463D1*
Y15282D2*
X49000D1*
X48332D2*
X48210Y15402D1*
X48150Y15524D1*
Y15705D1*
X48210Y15828D1*
X48332Y15948D1*
X48515Y16010D1*
X48635D1*
X48818Y15948D1*
X48939Y15828D1*
X49000Y15705D1*
Y15524D1*
X48939Y15402D1*
X48818Y15282D1*
X11625Y46474D2*
X12901Y45987D1*
X11625Y45501D1*
X12050Y45684D2*
Y46292D1*
X12476Y46866D2*
X11868D1*
X11687Y46927D1*
X11625Y47049D1*
Y47231D1*
X11687Y47352D1*
X11868Y47535D1*
X12476D2*
X11625D1*
X12476Y47927D2*
X11625Y48595D1*
X12476D2*
X11625Y47927D1*
X12901Y49352D2*
X12841Y49230D1*
X12718Y49109D1*
X12598Y49047D1*
X12415Y48987D1*
X12111D1*
X11930Y49047D1*
X11807Y49109D1*
X11687Y49230D1*
X11625Y49352D1*
Y49595D1*
X11687Y49716D1*
X11807Y49838D1*
X11930Y49898D1*
X12111Y49959D1*
X12415D1*
X12598Y49898D1*
X12718Y49838D1*
X12841Y49716D1*
X12901Y49595D1*
Y49352D1*
X12476Y50351D2*
X11868D1*
X11687Y50411D1*
X11625Y50533D1*
Y50716D1*
X11687Y50836D1*
X11868Y51019D1*
X12476D2*
X11625D1*
X12901Y51594D2*
X11868D1*
X11687Y51654D1*
X11625Y51776D1*
Y51897D1*
X12476Y51411D2*
Y51836D1*
X47800Y49652D2*
Y50442D1*
X49076D1*
X48407D2*
Y49956D1*
X47800Y49259D2*
X49076D1*
Y48712D1*
X49014Y48529D1*
X48953Y48469D1*
X48833Y48409D1*
X48650D1*
X48528Y48469D1*
X48468Y48529D1*
X48407Y48712D1*
X48346Y48529D1*
X48285Y48469D1*
X48165Y48409D1*
X48042D1*
X47922Y48469D1*
X47860Y48529D1*
X47800Y48712D1*
Y49259D1*
X48407D2*
Y48712D1*
X47800Y48017D2*
X49076D1*
X48225Y47624D2*
X49076D1*
X48468D2*
X48285Y47442D1*
X48225Y47320D1*
Y47139D1*
X48285Y47017D1*
X48468Y46956D1*
X49076D1*
X37272Y31526D2*
Y30675D1*
Y31161D2*
X37210Y31343D1*
X37089Y31465D1*
X36967Y31526D1*
X36785D1*
X36392Y31161D2*
X35664D1*
Y31283D1*
X35724Y31405D1*
X35785Y31465D1*
X35907Y31526D1*
X36089D1*
X36210Y31465D1*
X36332Y31343D1*
X36392Y31161D1*
Y31040D1*
X36332Y30858D1*
X36210Y30737D1*
X36089Y30675D1*
X35907D1*
X35785Y30737D1*
X35664Y30858D1*
X35272Y31526D2*
X34907Y30675D1*
X34543Y31526D1*
X34151Y31707D2*
X34029Y31769D1*
X33846Y31950D1*
Y30675D1*
X31612Y31951D2*
Y30980D1*
X31672Y30797D1*
X31734Y30737D1*
X31855Y30675D1*
X31977D1*
X32098Y30737D1*
X32158Y30797D1*
X32220Y30980D1*
Y31100D1*
X31220Y31526D2*
Y30918D1*
X31159Y30737D1*
X31037Y30675D1*
X30855D1*
X30734Y30737D1*
X30551Y30918D1*
Y31526D2*
Y30675D1*
X30159Y31526D2*
Y30675D1*
Y31283D2*
X29977Y31465D1*
X29855Y31526D1*
X29674D1*
X29551Y31465D1*
X29491Y31283D1*
Y30675D1*
X29099Y31312D2*
X28397D1*
X27943Y31646D2*
Y31707D1*
X27883Y31829D1*
X27822Y31889D1*
X27700Y31950D1*
X27457D1*
X27337Y31889D1*
X27276Y31829D1*
X27214Y31707D1*
Y31586D1*
X27276Y31464D1*
X27397Y31283D1*
X28005Y30675D1*
X27154D1*
X26397Y31950D2*
X26579Y31889D1*
X26702Y31707D1*
X26762Y31404D1*
Y31221D1*
X26702Y30918D1*
X26579Y30735D1*
X26397Y30675D1*
X26276D1*
X26094Y30735D1*
X25973Y30918D1*
X25911Y31221D1*
Y31404D1*
X25973Y31707D1*
X26094Y31889D1*
X26276Y31950D1*
X26397D1*
X25973Y31707D2*
X26702Y30918D1*
X25519Y31707D2*
X25397Y31769D1*
X25214Y31950D1*
Y30675D1*
X24214D2*
Y31950D1*
X24822Y31100D1*
X23911D1*
X36987Y27506D2*
X37109Y27446D1*
X37229Y27324D1*
X37291Y27203D1*
X37352Y27020D1*
Y26716D1*
X37291Y26535D1*
X37229Y26413D1*
X37109Y26292D1*
X36987Y26230D1*
X36744D1*
X36623Y26292D1*
X36501Y26413D1*
X36440Y26535D1*
X36380Y26716D1*
Y27020D1*
X36440Y27203D1*
X36501Y27324D1*
X36623Y27446D1*
X36744Y27506D1*
X36987D1*
X35988Y27081D2*
Y25805D1*
Y26898D2*
X35866Y27019D1*
X35745Y27081D1*
X35563D1*
X35440Y27019D1*
X35320Y26898D1*
X35258Y26716D1*
Y26594D1*
X35320Y26413D1*
X35440Y26290D1*
X35563Y26230D1*
X35745D1*
X35866Y26290D1*
X35988Y26413D1*
X34866Y26716D2*
X34137D1*
Y26838D1*
X34198Y26960D1*
X34258Y27020D1*
X34380Y27081D1*
X34563D1*
X34683Y27020D1*
X34805Y26898D1*
X34866Y26716D1*
Y26595D1*
X34805Y26413D1*
X34683Y26292D1*
X34563Y26230D1*
X34380D1*
X34258Y26292D1*
X34137Y26413D1*
X33745Y27081D2*
Y26230D1*
Y26838D2*
X33563Y27020D1*
X33440Y27081D1*
X33259D1*
X33137Y27020D1*
X33077Y26838D1*
Y26230D1*
X32685Y27506D2*
Y26230D1*
X31834Y27506D2*
Y26230D1*
X32685Y26898D2*
X31834D1*
X30713Y27081D2*
Y26230D1*
Y26898D2*
X30834Y27020D1*
X30956Y27081D1*
X31137D1*
X31259Y27020D1*
X31380Y26898D1*
X31442Y26716D1*
Y26595D1*
X31380Y26413D1*
X31259Y26292D1*
X31137Y26230D1*
X30956D1*
X30834Y26292D1*
X30713Y26413D1*
X30321Y27081D2*
Y26230D1*
Y26716D2*
X30259Y26898D1*
X30138Y27020D1*
X30016Y27081D1*
X29834D1*
X28713Y27506D2*
Y26230D1*
Y26898D2*
X28834Y27020D1*
X28956Y27081D1*
X29138D1*
X29259Y27020D1*
X29381Y26898D1*
X29442Y26716D1*
Y26595D1*
X29381Y26413D1*
X29259Y26292D1*
X29138Y26230D1*
X28956D1*
X28834Y26292D1*
X28713Y26413D1*
X28321Y27081D2*
X28078Y26230D1*
X27835Y27081D1*
X27592Y26230D1*
X27349Y27081D1*
X26229D2*
Y26230D1*
Y26898D2*
X26349Y27020D1*
X26472Y27081D1*
X26653D1*
X26775Y27020D1*
X26896Y26898D1*
X26957Y26716D1*
Y26595D1*
X26896Y26413D1*
X26775Y26292D1*
X26653Y26230D1*
X26472D1*
X26349Y26292D1*
X26229Y26413D1*
X25837Y27081D2*
Y26230D1*
Y26716D2*
X25775Y26898D1*
X25654Y27020D1*
X25532Y27081D1*
X25349D1*
X24957Y26716D2*
X24229D1*
Y26838D1*
X24289Y26960D1*
X24349Y27020D1*
X24472Y27081D1*
X24654D1*
X24775Y27020D1*
X24897Y26898D1*
X24957Y26716D1*
Y26595D1*
X24897Y26413D1*
X24775Y26292D1*
X24654Y26230D1*
X24472D1*
X24349Y26292D1*
X24229Y26413D1*
M02*
