M48
METRIC,0000.00
T01C0.5
%
T01
X+001889Y+002778
X+001889Y+002397
X+001571Y+002206
X+001762Y+001952
X+001762Y+001762
X+001762Y+001635
X+001762Y+001444
X+002588Y+002016
X+002588Y+002461
X+002588Y+002905
X+002588Y+003095
X+002588Y+003286
X+002461Y+003603
X+002524Y+003794
X+002969Y+003603
X+003032Y+003794
X+003350Y+004175
X+003350Y+004429
X+003350Y+004556
X+003223Y+004619
X+003096Y+004619
X+003096Y+004493
X+002969Y+004366
X+003096Y+004302
X+003096Y+004746
X+002969Y+004810
X+003350Y+004778
X+003413Y+004905
X+003540Y+004619
X+003667Y+004683
X+003857Y+005000
X+003730Y+005127
X+003412Y+005381
X+003223Y+005318
X+004112Y+005286
X+004366Y+005127
X+004366Y+005000
X+004048Y+004810
X+004048Y+004556
X+003667Y+004238
X+003921Y+003730
X+003826Y+003572
X+003730Y+003159
X+003921Y+003032
X+003921Y+002842
X+004112Y+003159
X+004175Y+003286
X+004366Y+003349
X+004366Y+003223
X+004366Y+002905
X+004302Y+002270
X+004175Y+002206
X+004302Y+001889
X+004683Y+001698
X+004810Y+001762
X+004874Y+002079
X+004620Y+001317
X+003667Y+001762
X+003730Y+002206
X+003604Y+002333
X+003477Y+002461
X+003096Y+002524
X+003477Y+003127
X+003413Y+003286
X+003413Y+003413
X+004429Y+003857
X+004620Y+003730
X+004620Y+004366
X+002461Y+004746
X+002397Y+004493
X+001889Y+004493
X+001889Y+004937
X+001889Y+005381
X+001381Y+005191
X+001571Y+003794
X+001889Y+003667
X+001889Y+003223
T00
M30
