G04 DipTrace Beta 2.3.9.1*
%INTop.gbr*%
%MOMM*%
%ADD10C,0.25*%
%ADD13C,0.3*%
%ADD15R,1.1X1.0*%
%ADD16R,1.0X1.1*%
%ADD18R,2.4X2.4*%
%ADD19R,1.5X0.7*%
%ADD20R,1.9X1.1*%
%ADD21R,0.7X1.5*%
%ADD22R,1.1X1.9*%
%ADD23R,0.9X0.8*%
%ADD26R,1.05X0.65*%
%ADD28R,1.6X0.3*%
%ADD29R,0.3X1.6*%
%ADD30R,0.6X1.1*%
%ADD33R,0.25X0.8*%
%ADD34R,0.8X0.25*%
%ADD36R,1.4X1.8*%
%ADD37C,1.0*%
%FSLAX53Y53*%
G04*
G71*
G90*
G75*
G01*
%LNTop*%
%LPD*%
X20365Y40480D2*
D13*
X15920Y44925D1*
X15715D1*
X20365Y27145D2*
X19730Y27780D1*
X18890D1*
Y32225D2*
X19525Y31590D1*
X20365D1*
Y36035D2*
Y40480D1*
X18890Y36670D2*
X19525Y36035D1*
X20365D1*
X18890Y44925D2*
X20365D1*
X18890Y49370D2*
X20365D1*
X18890Y53815D2*
X20365D1*
X18890Y23970D2*
X20160Y22700D1*
X20365D1*
X18890Y23970D2*
X15715Y27145D1*
Y29050D1*
X20365Y22700D2*
X20205Y22540D1*
Y13175D1*
X15715D2*
X20205D1*
X44925Y30550D2*
X44060D1*
X43020Y31590D1*
X41115D1*
X33495Y45560D2*
X33805Y45250D1*
X38575D1*
Y45750D2*
X36480D1*
X36035Y46195D1*
X35400D1*
X43655Y32225D2*
X44750D1*
X44925Y32050D1*
X38575Y46250D2*
X37250D1*
X36670Y46830D1*
X43655Y33495D2*
X43710Y33550D1*
X44925D1*
Y35050D2*
X44005D1*
X43655Y35400D1*
Y37305D1*
X44290Y37940D1*
Y38575D1*
X40480Y45560D2*
Y46195D1*
X39925Y46750D1*
X38575D1*
X27175Y45750D2*
X28860D1*
X29685Y44925D1*
Y43655D1*
X25875Y20160D2*
X25240D1*
X24605Y19525D1*
X27175Y46250D2*
X29630D1*
X30955Y44925D1*
X25875Y24605D2*
X25240D1*
X24605Y23970D1*
X27175Y46750D2*
X30400D1*
X30955Y46195D1*
X25875Y29050D2*
X25240D1*
X24605Y28415D1*
X27175Y47250D2*
X30740D1*
X30955Y47465D1*
X25875Y32860D2*
X24605D1*
X27175Y47750D2*
X29335D1*
X29685Y48100D1*
X25240Y37940D2*
X24605Y37305D1*
X27175Y48250D2*
X26025D1*
X25875Y48100D1*
Y43020D1*
X24605Y41750D1*
X27175Y48750D2*
X25860D1*
X25240Y49370D1*
X23970D1*
X23335Y48735D1*
Y47465D1*
X24605Y46195D1*
X27175Y49250D2*
X26630D1*
X25240Y50640D1*
X24605D1*
X35125Y51200D2*
Y52270D1*
X35400Y52545D1*
X38575D1*
X44575Y46545D1*
X44925D1*
X34625Y51200D2*
Y53040D1*
X34765Y53180D1*
X39210D1*
X44345Y48045D1*
X44925D1*
X34125Y51200D2*
Y53815D1*
X43655Y50005D2*
X44115Y49545D1*
X44925D1*
X33625Y51200D2*
Y52415D1*
X32860Y53180D1*
X32225D1*
X43655Y51275D2*
X43885Y51045D1*
X44925D1*
X22065Y49370D2*
X22305Y49130D1*
Y47145D1*
X21985Y47465D1*
X19525D1*
X17565Y49425D1*
X15715D1*
X22305Y51590D2*
X21640Y50925D1*
X15715D1*
X22065Y53815D2*
X22305Y53575D1*
Y51590D1*
X22065Y22700D2*
X22305Y22460D1*
Y20475D1*
X22065Y22700D2*
X17620Y27145D1*
Y29050D1*
X16120Y30550D1*
X15715D1*
X22065Y27145D2*
X22305Y26905D1*
Y24920D1*
X22065Y27145D2*
X19525Y29685D1*
X18890D1*
X16525Y32050D1*
X15715D1*
X22065Y31590D2*
X22305Y31350D1*
Y29365D1*
X22065Y31590D2*
X20105Y33550D1*
X15715D1*
X22065Y36035D2*
X22305Y35795D1*
Y33810D1*
X21350Y34765D1*
X18890D1*
X18605Y35050D1*
X15715D1*
X26725Y54030D2*
X28088D1*
X28620Y53498D1*
X24605Y52540D2*
X25236D1*
X26725Y54030D1*
X15715Y52425D2*
X16230D1*
X16985Y53180D1*
Y53815D1*
X17938Y54767D1*
X25988D1*
X26725Y54030D1*
X30115Y29050D2*
X31795D1*
X31665Y30880D2*
D10*
Y30330D1*
D13*
Y29180D1*
X31795Y29050D1*
X28415Y33130D2*
D10*
X27865D1*
D13*
X26875D1*
X26510Y33495D1*
Y35508D1*
Y37305D1*
X27145Y37940D1*
Y38780D1*
X24605Y39205D2*
X26720D1*
X27145Y38780D1*
X24605Y34760D2*
X25762D1*
X26510Y35508D1*
X27460Y15397D2*
Y16035D1*
X27145Y16350D1*
X23970D1*
X23335Y16985D1*
Y20160D1*
X23970Y20795D1*
X23975D1*
X24605Y21425D1*
X37940Y38145D2*
X38145D1*
X39210Y39210D1*
Y40480D1*
X40480Y41750D1*
X43655D1*
X44925Y43020D1*
Y45045D1*
X38575Y47250D2*
X41965D1*
X43655Y45560D1*
X43450D1*
X44925Y45045D2*
X43965D1*
X43450Y45560D1*
X37735Y37940D2*
X37940Y38145D1*
X15715Y36550D2*
Y37940D1*
X24605Y34760D2*
Y36035D1*
Y43650D2*
Y44290D1*
X23970Y44925D1*
X30115Y29050D2*
Y28210D1*
X29685Y27780D1*
X28415D1*
X27145D1*
X25240Y25875D1*
X24610D1*
X24605Y25870D1*
Y30315D2*
X25235D1*
X25875Y30955D1*
X24605Y21425D2*
X25870D1*
X27145Y22700D1*
X28210D1*
X28415Y22495D1*
Y27780D1*
X33495Y23765D2*
Y25875D1*
X31590Y27780D1*
Y28845D1*
X31795Y29050D1*
X36407Y16032D2*
Y17357D1*
X36670Y17620D1*
X44925Y13175D2*
X46195D1*
X44925Y29050D2*
Y25445D1*
X44720Y25240D1*
X39210Y32225D2*
X39845D1*
X40798Y33178D1*
Y34662D1*
X40900Y34765D1*
X37940Y38145D2*
Y37305D1*
X39845Y35400D1*
X40265D1*
X40900Y34765D1*
X41965Y47250D2*
Y47885D1*
X38893Y50958D1*
X38258D1*
X36988Y49688D1*
X36352D1*
X36125Y49915D1*
Y51200D1*
X36875Y54450D2*
X35400D1*
X34765Y55085D1*
X30207D1*
X28620Y53498D1*
X36125Y39800D2*
Y38803D1*
X36670Y38258D1*
X37828D1*
X37940Y38145D1*
X15715Y52425D2*
X14325D1*
X13810Y51910D1*
X15715Y20675D2*
Y22065D1*
X40900Y34765D2*
Y33710D1*
X41750Y32860D1*
X43655Y29050D2*
X44925D1*
X25875Y30955D2*
X27145Y29685D1*
Y27780D1*
X24605Y48095D2*
Y47465D1*
X39210Y32225D2*
X37940D1*
X37305Y31590D1*
X34765Y31272D2*
Y27145D1*
X33495Y25875D1*
X44925Y20675D2*
X45440D1*
X46195Y21430D1*
Y23970D1*
Y36035D1*
X45680Y36550D1*
X44925D1*
X35625Y51200D2*
Y50865D1*
X45123Y20477D2*
X44925Y20675D1*
X43020Y25240D2*
Y24605D1*
X43655Y23970D1*
X46195D1*
X39407Y16032D2*
Y18452D1*
X41750Y20795D1*
X45045D1*
X44925Y20675D1*
X39407Y16032D2*
Y18375D1*
X29125Y51200D2*
X27855D1*
X26725Y52330D1*
X26510Y18098D2*
Y18890D1*
X28415Y20795D1*
X43655Y54450D2*
X44925Y53180D1*
Y52545D1*
X29165Y30880D2*
D10*
Y31430D1*
D13*
Y32340D1*
X29685Y32860D1*
Y33495D1*
X29550Y33630D1*
X28965D1*
D10*
X28415D1*
X36625Y39800D2*
D13*
X37895D1*
X37940Y39845D1*
X42180Y30320D2*
Y28415D1*
Y26080D1*
X43020Y25240D1*
X28415Y33630D2*
D10*
X27645D1*
D13*
X27145Y34130D1*
Y36670D1*
X28415Y37940D1*
Y41750D1*
X27175D1*
X39407Y16032D2*
Y15277D1*
X38575Y14445D1*
X30955D1*
X29685Y15715D1*
Y19525D1*
X28415Y20795D1*
X29125Y51200D2*
Y49930D1*
X30320Y48735D1*
X31590D1*
X32225Y48100D1*
Y46195D1*
Y43020D1*
Y42385D1*
X31590Y41750D1*
X27175D1*
X36625Y39800D2*
Y41160D1*
X34765Y43020D1*
X32225D1*
X44925Y52545D2*
X45560D1*
X46195Y51910D1*
Y43655D1*
X44925Y36550D2*
X45440D1*
X46195Y37305D1*
X35625Y51200D2*
Y50230D1*
X35400Y50005D1*
X32860D1*
X31590Y48735D1*
X38575Y41750D2*
Y40480D1*
X37940Y39845D1*
X29625Y51200D2*
Y52803D1*
X30320Y53498D1*
X27175Y42250D2*
X25875D1*
Y40480D1*
X27145D1*
X24605Y13175D2*
Y13492D1*
X26510Y15397D1*
X28410D2*
Y14757D1*
X27462Y13810D1*
X25240D1*
X24605Y13175D1*
X28415Y32630D2*
D10*
X27865D1*
D13*
X27550D1*
X27145Y32225D1*
Y30955D1*
X27780Y30320D1*
Y29685D1*
X28415Y29050D1*
X32415Y32130D2*
D10*
X32955D1*
D13*
X33495Y31590D1*
Y29050D1*
X37940Y18460D2*
Y16065D1*
X37907Y16032D1*
X35400Y18460D2*
Y16525D1*
X34907Y16032D1*
X31590Y18255D2*
Y16350D1*
X31907Y16032D1*
X34625Y39800D2*
Y38080D1*
X38575Y34130D1*
X39005D1*
X39210Y33925D1*
X33495Y22065D2*
Y19955D1*
X38575Y44750D2*
X36495D1*
X36035Y44290D1*
X33495D1*
X34765Y24605D2*
Y23335D1*
X33495Y22065D1*
X38575Y43750D2*
X40340D1*
X40480Y43610D1*
X41750Y45560D2*
Y44880D1*
X40480Y43610D1*
X42600Y36885D2*
Y38930D1*
X42880Y39210D1*
X42600Y34765D2*
Y36885D1*
X38575Y44250D2*
X37265D1*
X36670Y43655D1*
Y42385D1*
X39210Y37305D2*
X39630Y36885D1*
X40900D1*
X33495Y18255D2*
Y16120D1*
X33407Y16032D1*
X44925Y14675D2*
X47060D1*
X48100Y15715D1*
Y17620D1*
X43020Y22700D2*
X36352Y29367D1*
Y34765D1*
X34125Y36992D1*
Y39800D1*
X38575Y48250D2*
X35232D1*
X34765Y47782D1*
X33495D1*
X17620Y14445D2*
X17390Y14675D1*
X15715D1*
X38575Y48750D2*
X34433D1*
X34130Y49053D1*
X17620Y16350D2*
X15890D1*
X15715Y16175D1*
X38575Y49250D2*
X39725D1*
X38575D2*
Y50005D1*
X17620Y17620D2*
X15715D1*
Y17675D1*
Y19175D2*
X17270D1*
X17620Y19525D1*
X37305Y51275D2*
X36700D1*
X36625Y51200D1*
X35125Y39800D2*
Y40120D1*
Y39800D2*
Y40755D1*
X34130Y41750D1*
X33495D1*
X48735Y20795D2*
X47115Y19175D1*
X44925D1*
X40480Y30320D2*
X39210D1*
X32415Y33630D2*
D10*
X32965D1*
D13*
X33360D1*
X34130Y32860D1*
X32415Y34130D2*
D10*
X34130D1*
X43020Y18890D2*
D13*
X44290Y17620D1*
X44870D1*
X44925Y17675D1*
X35625Y39800D2*
Y38350D1*
X38258Y35718D1*
X40480Y28415D2*
X39210D1*
X22065Y40480D2*
X22305Y40240D1*
Y38255D1*
X22065Y40480D2*
X16120Y46425D1*
X15715D1*
X22065Y44925D2*
X22305Y44685D1*
Y42700D1*
X22065Y44925D2*
X20795Y46195D1*
X18255D1*
X16525Y47925D1*
X15715D1*
X29125Y39800D2*
Y36595D1*
X29685Y36035D1*
X37305Y22065D2*
Y20795D1*
X37940Y20160D1*
X27175Y42750D2*
X30685D1*
X30955Y43020D1*
X36035Y23335D2*
Y20795D1*
X35400Y20160D1*
X32125Y39800D2*
Y38475D1*
X31590Y37940D1*
X30320D1*
X30955Y25240D2*
Y20590D1*
X31590Y19955D1*
X33625Y39800D2*
Y36540D1*
X35718Y34447D1*
Y28097D1*
X41750Y22065D1*
X46830Y16985D2*
X46020Y16175D1*
X44925D1*
X41750Y54450D2*
X38575D1*
X41750D2*
X42255D1*
X40480D1*
X42255D2*
Y54002D1*
X41115Y52863D1*
X40480Y48100D2*
X40130Y47750D1*
X38575D1*
Y54450D2*
X42255D1*
D37*
X18890Y27780D3*
Y32225D3*
Y36670D3*
Y44925D3*
Y49370D3*
Y53815D3*
Y23970D3*
Y27780D3*
Y23970D3*
X41115Y31590D3*
X33495Y45560D3*
X35400Y46195D3*
X43655Y32225D3*
X36670Y46830D3*
X43655Y33495D3*
X44290Y38575D3*
X40480Y45560D3*
X29685Y43655D3*
X25875Y20160D3*
X30955Y44925D3*
X25875Y24605D3*
X30955Y46195D3*
X25875Y29050D3*
X30955Y47465D3*
X25875Y32860D3*
X29685Y48100D3*
X25240Y37940D3*
X34125Y53815D3*
X43655Y50005D3*
X32225Y53180D3*
X43655Y51275D3*
X15715Y37940D3*
X24605Y36035D3*
X23970Y44925D3*
X24605Y36035D3*
X25875Y30955D3*
X24605Y36035D3*
X36670Y17620D3*
X46195Y13175D3*
X13810Y51910D3*
X15715Y37940D3*
Y22065D3*
Y37940D3*
Y22065D3*
X36670Y17620D3*
X46195Y13175D3*
X36670Y17620D3*
X41750Y32860D3*
X43655Y29050D3*
X24605Y47465D3*
X23970Y44925D3*
X37305Y31590D3*
X34765Y31272D3*
X46195Y43655D3*
X32225Y46195D3*
X46195Y37305D3*
Y43655D3*
X33495Y44290D3*
X34765Y24605D3*
X36670Y42385D3*
X39210Y37305D3*
X48100Y17620D3*
X43020Y22700D3*
X33495Y47782D3*
X17620Y14445D3*
X34130Y49053D3*
X17620Y16350D3*
X38575Y50005D3*
X17620Y17620D3*
Y19525D3*
X37305Y51275D3*
X33495Y41750D3*
X48735Y20795D3*
X39210Y30320D3*
X34130Y32860D3*
Y34130D3*
X43020Y18890D3*
X38258Y35718D3*
X39210Y28415D3*
X29685Y36035D3*
X37305Y22065D3*
X30955Y43020D3*
X36035Y23335D3*
X30320Y37940D3*
X30955Y25240D3*
X41750Y22065D3*
X46830Y16985D3*
X41115Y52863D3*
X40480Y48100D3*
D15*
X30320Y53498D3*
X28620D3*
D16*
X27145Y40480D3*
Y38780D3*
X26725Y52330D3*
Y54030D3*
X28415Y20795D3*
Y22495D3*
X37940Y39845D3*
Y38145D3*
X33495Y22065D3*
Y23765D3*
D15*
X43020Y25240D3*
X44720D3*
X28415Y29050D3*
X30115D3*
X33495D3*
X31795D3*
X38575Y54450D3*
X36875D3*
X42600Y34765D3*
X40900D3*
X41750Y45560D3*
X43450D3*
D18*
X24605Y13175D3*
X20205D3*
D19*
X44925Y52545D3*
Y51045D3*
Y49545D3*
Y48045D3*
Y46545D3*
Y45045D3*
D20*
X48825Y43095D3*
Y54495D3*
D19*
X15715Y29050D3*
Y30550D3*
Y32050D3*
Y33550D3*
Y35050D3*
Y36550D3*
D20*
X11815Y38500D3*
Y27100D3*
D19*
X44925Y36550D3*
Y35050D3*
Y33550D3*
Y32050D3*
Y30550D3*
Y29050D3*
D20*
X48825Y27100D3*
Y38500D3*
D19*
X15715Y44925D3*
Y46425D3*
Y47925D3*
Y49425D3*
Y50925D3*
Y52425D3*
D20*
X11815Y54375D3*
Y42975D3*
D19*
X44925Y20675D3*
Y19175D3*
Y17675D3*
Y16175D3*
Y14675D3*
Y13175D3*
D20*
X48825Y11225D3*
Y22625D3*
D19*
X15715Y13175D3*
Y14675D3*
Y16175D3*
Y17675D3*
Y19175D3*
Y20675D3*
D20*
X11815Y22625D3*
Y11225D3*
D21*
X39407Y16032D3*
X37907D3*
X36407D3*
X34907D3*
X33407D3*
X31907D3*
D22*
X29957Y12132D3*
X41357D3*
D23*
X43655Y54450D3*
X42255D3*
D26*
X24605Y37305D3*
Y39205D3*
X22305Y38255D3*
X24605Y32860D3*
Y34760D3*
X22305Y33810D3*
X24605Y28415D3*
Y30315D3*
X22305Y29365D3*
X24605Y23970D3*
Y25870D3*
X22305Y24920D3*
X24605Y19525D3*
Y21425D3*
X22305Y20475D3*
X24605Y41750D3*
Y43650D3*
X22305Y42700D3*
X24605Y46195D3*
Y48095D3*
X22305Y47145D3*
X24605Y50640D3*
Y52540D3*
X22305Y51590D3*
D15*
X22065Y40480D3*
X20365D3*
X22065Y36035D3*
X20365D3*
X22065Y31590D3*
X20365D3*
X22065Y27145D3*
X20365D3*
X22065Y22700D3*
X20365D3*
X22065Y44925D3*
X20365D3*
X22065Y49370D3*
X20365D3*
X22065Y53815D3*
X20365D3*
X40480Y30320D3*
X42180D3*
X40480Y28415D3*
X42180D3*
D16*
X37940Y20160D3*
Y18460D3*
X35400Y20160D3*
Y18460D3*
D15*
X42600Y36885D3*
X40900D3*
D16*
X31590Y18255D3*
Y19955D3*
X39210Y32225D3*
Y33925D3*
X33495Y18255D3*
Y19955D3*
D28*
X38575Y41750D3*
Y42250D3*
Y42750D3*
Y43250D3*
Y43750D3*
Y44250D3*
Y44750D3*
Y45250D3*
Y45750D3*
Y46250D3*
Y46750D3*
Y47250D3*
Y47750D3*
Y48250D3*
Y48750D3*
Y49250D3*
D29*
X36625Y51200D3*
X36125D3*
X35625D3*
X35125D3*
X34625D3*
X34125D3*
X33625D3*
X33125D3*
X32625D3*
X32125D3*
X31625D3*
X31125D3*
X30625D3*
X30125D3*
X29625D3*
X29125D3*
D28*
X27175Y49250D3*
Y48750D3*
Y48250D3*
Y47750D3*
Y47250D3*
Y46750D3*
Y46250D3*
Y45750D3*
Y45250D3*
Y44750D3*
Y44250D3*
Y43750D3*
Y43250D3*
Y42750D3*
Y42250D3*
Y41750D3*
D29*
X29125Y39800D3*
X29625D3*
X30125D3*
X30625D3*
X31125D3*
X31625D3*
X32125D3*
X32625D3*
X33125D3*
X33625D3*
X34125D3*
X34625D3*
X35125D3*
X35625D3*
X36125D3*
X36625D3*
D30*
X26510Y15397D3*
X27460D3*
X28410D3*
Y18098D3*
X26510D3*
D33*
X31665Y34880D3*
X31165D3*
X30665D3*
X30165D3*
X29665D3*
X29165D3*
D34*
X28415Y34130D3*
Y33630D3*
Y33130D3*
Y32630D3*
Y32130D3*
Y31630D3*
D33*
X29165Y30880D3*
X29665D3*
X30165D3*
X30665D3*
X31165D3*
X31665D3*
D34*
X32415Y31630D3*
Y32130D3*
Y32630D3*
Y33130D3*
Y33630D3*
Y34130D3*
D36*
X40480Y39210D3*
Y43610D3*
X42880Y39210D3*
Y43610D3*
M02*
