G04 DipTrace Beta 2.3.9.1*
%INTopSilk.gbr*%
%MOMM*%
%ADD10C,0.25*%
%ADD17O,0.6X0.6*%
%ADD25O,0.392X0.391*%
%ADD27C,0.399*%
%ADD31C,0.15*%
%ADD32O,0.295X0.295*%
%ADD35O,0.318X0.317*%
%FSLAX53Y53*%
G04*
G71*
G90*
G75*
G01*
%LNTopSilk*%
%LPD*%
X31269Y53898D2*
D10*
Y53098D1*
X26745Y41429D2*
X27545D1*
X27125Y51381D2*
X26325D1*
X28815Y19846D2*
X28015D1*
X37540Y40794D2*
X38340D1*
X33895Y21116D2*
X33095D1*
X42071Y24840D2*
Y25640D1*
X27466Y28650D2*
Y29450D1*
X34444D2*
Y28650D1*
X39524Y54850D2*
Y54050D1*
X43549Y35165D2*
Y34365D1*
X40801Y45160D2*
Y45960D1*
X24655Y11375D2*
X20155D1*
X24655Y14975D2*
X20155D1*
Y11375D2*
Y11625D1*
X24655Y11375D2*
Y11625D1*
X20155Y14725D2*
Y14975D1*
X24655Y14725D2*
Y14975D1*
D17*
X26480Y13175D3*
X44290Y54827D2*
D10*
X50790D1*
Y42827D1*
X44290D1*
Y54827D1*
X16350Y26768D2*
X9850D1*
Y38768D1*
X16350D1*
Y26768D1*
X44290Y38832D2*
X50790D1*
Y26832D1*
X44290D1*
Y38832D1*
X16350Y42643D2*
X9850D1*
Y54643D1*
X16350D1*
Y42643D1*
X44290Y22957D2*
X50790D1*
Y10957D1*
X44290D1*
Y22957D1*
X16350Y10893D2*
X9850D1*
Y22893D1*
X16350D1*
Y10893D1*
X41690Y16667D2*
X29690D1*
Y10167D1*
X41690D1*
Y16667D1*
D25*
X24979Y36521D3*
X23705Y36755D2*
D10*
Y39755D1*
X23205D1*
Y36755D1*
X23705D1*
D25*
X24979Y32076D3*
X23705Y32310D2*
D10*
Y35310D1*
X23205D1*
Y32310D1*
X23705D1*
D25*
X24979Y27631D3*
X23705Y27865D2*
D10*
Y30865D1*
X23205D1*
Y27865D1*
X23705D1*
D25*
X24979Y23186D3*
X23705Y23420D2*
D10*
Y26420D1*
X23205D1*
Y23420D1*
X23705D1*
D25*
X24979Y18741D3*
X23705Y18975D2*
D10*
Y21975D1*
X23205D1*
Y18975D1*
X23705D1*
D25*
X24979Y40966D3*
X23705Y41200D2*
D10*
Y44200D1*
X23205D1*
Y41200D1*
X23705D1*
D25*
X24979Y45411D3*
X23705Y45645D2*
D10*
Y48645D1*
X23205D1*
Y45645D1*
X23705D1*
D25*
X24979Y49856D3*
X23705Y50090D2*
D10*
Y53090D1*
X23205D1*
Y50090D1*
X23705D1*
X37376Y40999D2*
X28374D1*
Y50001D1*
X37376D1*
Y40999D1*
G36*
D2*
Y41800D1*
X36575Y40999D1*
X37376D1*
G37*
D27*
X38575Y41049D3*
D25*
X25826Y14975D3*
X25960Y16348D2*
D10*
X28960D1*
X25960Y17148D2*
X28960D1*
Y16348D2*
Y17148D1*
X25960Y16348D2*
Y17148D1*
X32320Y34785D2*
D31*
X28510D1*
Y30975D1*
X32320D1*
Y34785D1*
D32*
X32150Y35250D3*
X40100Y38410D2*
D10*
X43260D1*
Y44410D1*
X40100D1*
Y38410D1*
D35*
X43109Y37759D3*
M02*
